<?xml version="1.0" standalone="no"?>
<!DOCTYPE svg PUBLIC "-//W3C//DTD SVG 20010904//EN"
 "http://www.w3.org/TR/2001/REC-SVG-20010904/DTD/svg10.dtd">
<svg version="1.0" xmlns="http://www.w3.org/2000/svg"
 width="1024.000000pt" height="1024.000000pt" viewBox="0 0 1024.000000 1024.000000"
 preserveAspectRatio="xMidYMid meet">
<metadata>
Created by potrace 1.14, written by Peter Selinger 2001-2017
</metadata>
<g transform="translate(0.000000,1024.000000) scale(0.100000,-0.100000)"
fill="#000000" stroke="none">
<path d="M0 5120 l0 -5120 5120 0 5120 0 0 5120 0 5120 -5120 0 -5120 0 0
-5120z m9018 3933 c50 -28 145 -116 166 -155 12 -23 17 -44 12 -61 -3 -14 -45
-68 -92 -118 -88 -94 -445 -536 -593 -734 -45 -60 -103 -137 -129 -170 -90
-114 -364 -485 -447 -605 -32 -47 -60 -87 -62 -89 -7 -10 -62 64 -69 92 -5 25
-2 34 17 50 20 16 33 18 76 13 33 -4 53 -2 53 4 0 5 -4 10 -10 10 -15 0 -40
56 -40 88 0 41 52 56 114 32 32 -12 41 2 16 25 -24 22 -43 78 -35 104 6 19 43
34 67 27 7 -2 33 -7 58 -10 40 -5 43 -5 27 8 -23 18 -46 82 -40 107 10 37 30
44 90 31 67 -14 82 -8 53 23 -25 27 -38 98 -21 119 14 17 81 29 95 17 10 -8
42 -15 58 -12 4 0 -4 17 -17 37 -28 41 -31 70 -13 109 11 24 16 26 57 22 26
-2 56 -8 69 -12 27 -9 30 10 6 36 -9 10 -16 38 -17 65 -2 46 -1 48 36 62 32
13 44 13 77 2 47 -15 60 -8 36 19 -23 25 -37 88 -26 116 11 29 31 33 98 22 29
-5 56 -7 59 -4 3 3 -5 20 -17 37 -15 21 -22 45 -22 73 1 51 23 71 70 63 17 -3
48 -9 68 -13 l37 -6 -27 39 c-28 41 -35 101 -14 122 15 15 56 15 114 1 56 -14
65 -6 32 29 -15 15 -29 45 -33 68 l-6 40 -81 12 c-45 6 -84 10 -86 7 -2 -2 6
-24 17 -49 14 -28 21 -59 19 -83 -3 -43 -5 -43 -110 -29 l-58 7 25 -53 c14
-29 25 -70 25 -90 0 -43 1 -43 -100 -28 -35 5 -66 7 -68 6 -2 -2 6 -22 17 -45
12 -23 21 -59 21 -86 l0 -46 -47 6 c-27 3 -63 8 -80 11 -39 6 -40 1 -10 -48
17 -26 22 -47 19 -77 l-4 -41 -67 6 c-36 3 -72 7 -78 10 -19 5 -16 -17 7 -51
19 -28 28 -113 14 -127 -3 -3 -20 -2 -37 2 -18 5 -53 10 -79 13 l-47 4 20 -39
c11 -22 23 -62 26 -90 l6 -50 -29 5 c-16 4 -55 9 -87 13 l-57 6 25 -43 c16
-29 25 -60 25 -88 l0 -44 -80 7 -81 7 26 -41 c26 -41 31 -75 16 -99 -7 -11
-25 -13 -80 -8 -39 3 -71 4 -71 1 0 -2 13 -23 30 -46 17 -23 30 -54 30 -70 l0
-28 -79 0 -79 0 29 -52 c16 -29 29 -64 29 -77 0 -23 -1 -24 -78 -19 l-79 4 23
-40 c29 -53 35 -101 12 -100 -9 1 -47 4 -85 8 l-68 7 32 -30 c18 -16 27 -31
20 -34 -8 -2 -7 -12 2 -35 7 -17 10 -35 7 -41 -4 -6 -37 -7 -83 -4 l-76 5 27
-34 c32 -42 52 -96 40 -108 -5 -5 -36 -5 -74 0 -35 5 -66 8 -68 6 -2 -2 11
-25 27 -52 53 -82 44 -92 -64 -74 -50 8 -69 5 -48 -8 14 -9 63 -82 63 -95 0
-6 -30 -8 -81 -4 -44 3 -79 2 -77 -1 2 -4 23 -35 48 -69 45 -60 45 -61 86 -56
23 3 51 0 63 -6 29 -16 28 2 -5 59 -24 42 -24 45 -8 57 21 16 63 17 100 3 35
-14 45 -3 17 18 -12 9 -27 29 -32 44 -22 58 18 85 86 60 55 -21 63 -11 24 28
-36 37 -39 62 -10 91 19 19 28 21 80 15 59 -7 78 3 42 23 -10 5 -27 31 -37 57
-19 46 -19 47 0 61 18 14 34 14 114 -3 l35 -7 -37 41 c-21 23 -38 46 -38 50 0
18 52 52 80 52 32 0 102 -29 98 -41 -2 -5 -42 -57 -90 -117 -77 -97 -166 -219
-308 -420 -25 -34 -81 -111 -125 -171 -44 -59 -132 -179 -195 -266 -63 -88
-162 -221 -218 -298 l-104 -139 -18 28 c-9 16 -32 42 -49 58 -39 37 -39 52 0
60 22 4 42 0 70 -16 21 -12 42 -19 45 -15 4 3 -5 25 -19 49 -13 24 -26 52 -28
62 -4 17 -15 20 -82 24 l-78 4 20 -38 c23 -42 27 -64 12 -64 -12 0 -121 100
-121 111 0 5 40 59 88 121 48 62 167 219 263 348 260 348 348 466 415 555 34
44 126 168 206 275 296 398 594 792 818 1079 74 96 153 197 174 225 22 28 85
110 140 181 55 72 129 168 164 215 74 99 96 120 126 120 12 0 36 -8 54 -17z
m-5398 -358 c39 -263 136 -500 230 -563 40 -27 87 -24 153 10 22 11 40 18 42
16 2 -2 -6 -30 -17 -63 -41 -122 -10 -249 103 -417 40 -60 304 -338 321 -338
4 0 8 10 8 23 0 14 -27 53 -71 102 -84 94 -169 205 -169 221 0 17 72 79 153
131 298 191 645 194 940 9 40 -25 94 -65 121 -89 l50 -44 -24 -34 c-13 -19
-58 -74 -100 -124 -117 -139 -135 -164 -122 -177 23 -23 248 208 345 354 92
140 118 266 79 383 -11 33 -19 61 -17 63 2 2 23 -7 47 -19 26 -14 61 -23 91
-23 43 0 52 4 92 44 117 115 208 425 223 760 8 167 15 168 57 3 67 -263 55
-542 -33 -803 -88 -258 -258 -494 -471 -655 -75 -56 -261 -157 -358 -195 -46
-17 -42 -34 5 -25 92 17 286 100 375 160 27 18 39 22 42 13 26 -73 100 -321
116 -388 25 -105 45 -260 54 -405 8 -140 -2 -126 -54 76 -47 184 -61 225 -105
304 -36 65 -125 205 -130 205 -2 0 14 -51 36 -112 29 -83 41 -134 45 -193 l4
-80 -30 33 c-17 18 -31 28 -31 23 0 -5 7 -14 15 -21 22 -19 139 -197 173 -265
16 -33 43 -100 60 -150 29 -89 36 -118 107 -442 20 -89 47 -196 60 -237 22
-68 117 -264 195 -405 33 -60 36 -87 16 -153 -42 -140 -178 -241 -706 -521
-135 -72 -325 -174 -423 -228 -97 -54 -175 -95 -173 -91 5 8 424 284 586 385
396 248 520 339 554 405 8 16 20 50 27 75 l11 47 -65 97 c-117 174 -160 303
-241 728 -36 187 -91 368 -137 455 -74 136 -226 354 -316 449 -102 109 -488
461 -506 461 -14 0 -218 -173 -372 -315 -161 -149 -302 -327 -420 -529 -86
-146 -98 -190 -175 -596 -58 -305 -114 -465 -219 -620 -28 -41 -51 -85 -51
-98 0 -44 54 -136 115 -197 33 -33 101 -88 150 -122 50 -34 225 -156 390 -269
265 -183 382 -267 435 -312 18 -16 -13 1 -170 94 -63 37 -236 136 -385 219
-148 84 -301 172 -340 197 -207 134 -345 282 -345 370 0 49 38 146 102 260
102 182 138 290 204 613 19 94 44 204 55 245 48 175 140 351 256 493 35 42 62
77 59 77 -2 0 -28 -21 -58 -46 -48 -41 -53 -43 -56 -25 -4 25 38 177 68 246
11 26 18 50 16 53 -3 2 -29 -33 -59 -79 -109 -170 -124 -205 -176 -408 -28
-106 -53 -196 -57 -200 -11 -10 4 275 21 384 8 54 25 133 36 175 20 71 102
299 117 326 5 9 29 -2 86 -37 82 -50 205 -102 289 -121 40 -10 50 -9 63 4 14
14 12 16 -23 22 -50 8 -220 90 -311 151 -338 222 -552 589 -594 1018 -18 180
10 417 64 562 l23 60 6 -145 c4 -80 12 -181 19 -225z m1460 -480 c162 -38 322
-121 445 -228 l49 -44 -12 -42 c-7 -22 -17 -41 -21 -41 -5 0 -58 33 -118 73
-121 81 -250 136 -383 163 -122 24 -331 15 -460 -20 -123 -35 -277 -109 -364
-176 -74 -57 -80 -56 -92 10 -6 31 -3 37 37 73 134 120 314 205 506 242 102
19 311 14 413 -10z m3714 -87 c3 -29 6 -574 6 -1210 0 -1023 -2 -1158 -15
-1158 -13 0 -15 141 -15 1210 0 669 4 1210 9 1210 4 0 11 -24 15 -52z m-2895
-552 c7 -8 15 -31 19 -53 l7 -38 5 40 5 40 17 -30 c25 -48 32 -93 14 -97 -12
-3 -12 -9 4 -44 41 -87 86 -284 67 -284 -2 0 -18 7 -34 15 -23 12 -36 29 -53
78 -12 34 -36 88 -52 121 -30 59 -31 86 -3 86 8 0 15 4 15 9 0 5 8 12 18 14
13 4 13 5 -4 6 -12 0 -41 -6 -65 -14 -60 -22 -73 -5 -30 39 30 31 33 39 27 75
-4 27 -2 41 7 44 20 9 24 8 36 -7z m-2055 -43 c-5 -35 -3 -40 35 -68 47 -35
49 -44 19 -80 l-23 -25 -54 20 c-72 26 -78 18 -18 -23 16 -11 15 -18 -24 -107
-23 -52 -46 -96 -50 -98 -4 -2 -17 -12 -29 -22 -47 -40 -52 1 -15 117 14 43
34 93 45 112 20 31 20 34 4 52 -15 16 -15 24 -4 63 14 53 46 88 60 67 6 -10 9
-9 15 8 3 12 15 21 26 21 17 0 18 -5 13 -37z m1161 -457 c72 -36 125 -65 119
-65 -6 -1 -54 12 -105 29 -52 16 -104 30 -117 30 -13 0 -94 -17 -180 -39 -221
-55 -215 -53 -207 -41 16 26 294 148 340 150 11 0 79 -29 150 -64z m2926 33
c-10 -24 -66 -93 -59 -73 5 15 63 102 66 99 1 -1 -2 -13 -7 -26z m9 -46 c-1
-20 -79 -165 -79 -148 -1 11 5 29 12 40 7 11 21 41 31 68 10 26 22 47 27 47 5
0 9 -3 9 -7z m-4197 -118 c4 -60 6 -231 4 -380 -4 -247 -7 -278 -29 -360 -23
-88 -25 -90 -52 -88 -32 2 -71 34 -93 76 -18 37 -33 211 -33 410 l0 157 33 1
c30 2 30 2 5 6 -27 4 -28 7 -28 62 0 137 64 234 150 228 l35 -2 8 -110z m2319
104 c52 -23 98 -132 98 -232 l0 -48 -42 3 c-34 2 -43 7 -42 21 1 9 -2 17 -7
17 -5 0 -9 -19 -9 -42 0 -24 -2 -68 -5 -98 -3 -41 -2 -47 4 -25 5 17 9 49 10
73 l1 42 44 0 43 0 6 -97 c8 -116 -7 -412 -23 -465 -10 -36 -47 -67 -97 -82
-20 -6 -24 -1 -41 56 -39 127 -45 201 -39 530 3 172 8 323 12 336 8 25 47 30
87 11z m-1052 -60 c90 -34 87 -35 -25 -9 -47 11 -88 20 -90 20 -3 0 -5 -42 -5
-92 0 -51 -3 -110 -6 -130 l-7 -38 -101 -1 c-55 -1 -148 -4 -206 -8 -58 -4
-108 -4 -113 -1 -4 4 12 53 35 111 l43 104 165 41 c183 46 194 46 310 3z
m2851 18 c-6 -8 -8 -17 -4 -20 3 -4 0 -13 -7 -22 -9 -10 -11 -32 -6 -68 4 -33
3 -47 -3 -37 -9 14 -16 76 -11 93 1 4 3 10 4 15 7 30 19 52 28 52 7 0 7 -4 -1
-13z m38 -126 c-29 -55 -55 -98 -57 -96 -3 2 19 53 48 112 29 59 55 103 57 96
2 -6 -19 -57 -48 -112z m43 -17 c-5 -9 -6 -34 -2 -55 4 -21 3 -39 -1 -39 -5 0
-9 9 -9 20 0 28 -12 25 -35 -9 -10 -16 -23 -27 -28 -24 -5 3 8 23 29 44 21 22
33 39 26 39 -7 0 -5 10 6 30 9 16 18 25 20 20 2 -5 -1 -17 -6 -26z m-12 -113
c0 -13 -28 -22 -35 -11 -3 4 1 11 7 13 20 8 28 8 28 -2z m-60 -51 c0 -12 -40
-34 -47 -26 -9 8 17 36 33 36 8 0 14 -4 14 -10z m88 -14 c3 -12 -1 -17 -10
-14 -7 3 -15 13 -16 22 -3 12 1 17 10 14 7 -3 15 -13 16 -22z m-2813 -15 l50
-8 -40 -2 c-71 -2 -237 -31 -266 -45 -20 -10 -39 -12 -61 -6 -18 4 -108 18
-200 31 -92 12 -165 25 -162 28 19 20 562 21 679 2z m-476 -67 l205 -43 75 15
c42 8 110 24 151 34 106 26 251 53 256 48 2 -3 -24 -12 -58 -22 -35 -9 -141
-40 -235 -68 l-173 -51 0 -148 c0 -148 0 -149 -22 -148 -13 0 -158 31 -323 68
-249 56 -300 70 -299 84 2 20 108 179 149 223 l31 32 -31 16 -30 16 50 -6 c28
-3 142 -26 254 -50z m3305 22 c5 -17 19 -314 30 -616 l1 -35 -92 -3 c-95 -3
-160 8 -156 26 2 6 12 137 23 291 18 255 23 309 35 348 3 9 27 12 79 11 66 -1
75 -4 80 -22z m-671 -103 c-7 -2 -21 -2 -30 0 -10 3 -4 5 12 5 17 0 24 -2 18
-5z m-2906 -292 c73 -34 142 -61 153 -61 12 0 53 10 91 21 39 12 72 19 75 16
6 -6 -145 -67 -166 -67 -21 0 -336 155 -345 169 -8 14 6 8 192 -78z m1158 79
c-9 -15 -321 -170 -342 -170 -20 0 -153 49 -167 61 -5 4 9 3 30 -3 137 -35
124 -36 236 16 120 57 230 104 241 105 5 1 5 -4 2 -9z m-1355 -113 l0 -63 48
-18 c26 -10 74 -28 107 -41 33 -12 84 -34 113 -48 l53 -26 43 19 c68 29 298
100 323 100 13 0 99 -25 192 -55 l168 -56 141 61 c78 33 146 60 151 60 7 0 11
23 11 54 0 78 16 78 24 -1 4 -36 6 -67 4 -68 -21 -15 -325 -155 -339 -155 -9
0 -88 25 -174 55 -87 30 -164 55 -173 55 -13 0 -14 -24 -9 -196 3 -108 8 -199
11 -201 3 -3 72 23 153 57 81 35 195 83 253 107 58 25 152 69 209 99 57 30
106 53 108 50 2 -2 -3 -28 -11 -57 -8 -30 -31 -128 -51 -219 -55 -252 -68
-309 -74 -319 -13 -20 -578 -291 -607 -291 -21 0 -311 132 -479 218 l-150 77
-17 80 c-10 44 -40 179 -67 300 -27 121 -49 221 -48 222 1 1 47 -21 102 -48
111 -55 635 -273 641 -266 6 6 -149 77 -330 152 -232 96 -216 85 -216 154 0
65 4 61 -102 105 -42 16 -44 27 -32 120 10 67 24 57 24 -17z m2085 -155 c33
-20 85 -66 275 -242 69 -63 165 -151 214 -195 49 -44 111 -106 138 -139 42
-50 49 -64 46 -95 -2 -30 -7 -37 -28 -39 -57 -9 -98 16 -154 91 -30 40 -110
127 -178 195 -97 96 -139 130 -190 155 -51 24 -82 50 -133 107 -99 111 -111
144 -62 168 31 15 38 14 72 -6z m1694 -679 c1 -459 -1 -523 -14 -523 -13 0
-15 66 -15 533 0 294 3 537 7 541 4 4 11 -1 14 -11 4 -10 8 -253 8 -540z
m-1581 393 c15 -8 38 -26 52 -41 l25 -27 -55 21 c-30 12 -63 21 -72 21 -20 0
-24 26 -5 33 20 9 27 8 55 -7z m2423 -37 c5 -11 9 -50 7 -87 l-3 -67 -50 0
-50 0 -3 60 c-2 32 0 70 3 83 10 42 75 49 96 11z m-2430 -48 c47 -56 79 -98
79 -106 0 -4 -24 14 -53 39 -52 44 -67 48 -67 19 0 -16 38 -71 89 -127 l36
-40 -51 45 c-28 24 -70 55 -94 68 -40 22 -43 22 -36 5 4 -10 10 -32 13 -48 5
-25 4 -28 -11 -23 -10 4 -26 2 -37 -4 -16 -8 -19 -17 -14 -40 4 -16 4 -29 2
-29 -9 0 -47 71 -47 86 0 17 137 194 150 194 4 0 23 -18 41 -39z m-1840 -593
c132 -101 257 -196 278 -211 37 -28 39 -28 75 -13 49 20 45 12 -9 -20 l-46
-26 -62 32 c-34 18 -88 50 -120 71 l-58 38 30 -37 c16 -20 65 -72 109 -116 68
-66 84 -78 106 -74 21 4 24 3 15 -8 -25 -31 -48 -25 -140 33 -97 62 -287 197
-389 276 l-61 48 6 67 c7 77 15 122 21 122 2 0 112 -82 245 -182z m1860 33
c282 -87 539 -219 753 -389 106 -83 282 -264 363 -372 97 -129 159 -235 222
-376 137 -308 223 -455 338 -575 48 -50 67 -78 79 -119 22 -75 113 -265 166
-346 24 -38 86 -118 137 -179 81 -97 95 -119 116 -188 14 -43 28 -95 31 -115
l6 -38 -92 87 c-50 49 -117 105 -147 125 -68 45 -178 93 -213 94 -22 0 -231
-58 -448 -125 -29 -9 -58 -15 -63 -13 -17 6 83 100 158 149 87 56 231 112 293
113 25 1 64 -3 87 -7 l42 -9 -29 54 c-16 30 -41 86 -55 124 -37 97 -77 184
-84 184 -11 0 -52 -47 -115 -130 -31 -41 -85 -99 -119 -129 -61 -54 -237 -174
-244 -167 -5 5 25 64 109 213 95 168 137 260 144 314 6 45 5 49 -36 93 -43 47
-43 47 -103 44 l-60 -3 -15 -70 c-27 -138 -182 -381 -358 -562 l-76 -78 28 50
c66 118 134 267 162 355 59 187 91 490 72 701 -7 89 -7 126 1 142 l12 22 -23
-20 c-13 -11 -37 -42 -55 -70 -30 -47 -48 -88 -140 -330 -21 -55 -56 -134 -79
-175 -42 -78 -123 -210 -129 -210 -2 0 0 24 4 53 37 232 63 641 49 791 -5 60
-12 111 -15 114 -3 3 -16 -5 -30 -18 -25 -23 -25 -23 -25 -2 0 61 -65 172
-102 172 -17 0 -156 -326 -184 -433 l-18 -67 -66 6 c-36 4 -66 8 -68 9 -2 2 5
54 15 116 12 82 17 176 18 334 0 242 -6 301 -36 339 -19 24 -22 25 -44 10 -40
-26 -81 -101 -148 -274 -63 -163 -121 -286 -171 -365 -30 -47 -31 -42 -11 28
57 200 91 590 80 925 -6 192 -5 222 8 222 8 0 57 -13 108 -29z m-2911 -24 c46
-43 46 -43 59 -142 34 -268 92 -548 173 -844 21 -79 38 -145 36 -147 -4 -4
-87 114 -147 211 -44 71 -126 231 -151 295 -35 90 -104 171 -131 154 -68 -42
-69 -393 -3 -777 l7 -38 -62 3 -61 3 -49 140 c-64 184 -154 424 -170 453 -6
12 -16 22 -20 22 -5 0 -29 -19 -53 -42 -53 -52 -77 -119 -85 -235 -3 -46 -9
-83 -14 -83 -4 0 -29 26 -56 58 -48 57 -73 81 -84 82 -4 0 -12 -53 -19 -117
-14 -130 -8 -339 15 -538 21 -176 22 -172 -19 -128 -78 88 -145 208 -207 371
-30 81 -86 161 -134 192 l-20 13 20 -23 c19 -21 20 -37 21 -244 2 -300 37
-499 133 -746 22 -57 39 -105 37 -107 -7 -7 -153 157 -223 251 -41 55 -97 147
-125 205 -28 58 -60 116 -71 128 l-20 22 -38 -20 c-21 -10 -46 -30 -55 -44
-22 -34 -44 -121 -44 -179 0 -45 3 -52 42 -85 69 -59 194 -218 236 -300 33
-62 92 -223 92 -248 0 -3 -28 20 -63 53 -72 67 -194 170 -270 227 -129 97
-174 139 -261 240 -32 37 -61 67 -65 67 -14 0 -57 -82 -100 -190 l-46 -115 85
-1 c100 -1 157 -23 257 -98 77 -58 163 -162 163 -196 0 -14 -28 -7 -230 61
-95 33 -204 64 -242 70 l-67 10 -79 -41 c-93 -48 -210 -145 -272 -224 -23 -31
-44 -55 -46 -53 -2 2 0 17 5 33 6 16 22 69 37 118 25 87 29 92 116 183 49 52
110 126 135 164 48 76 144 271 174 358 15 43 36 70 112 145 151 146 239 273
323 461 130 292 241 461 433 659 267 274 525 429 961 579 68 23 81 20 130 -26z
m274 -299 c164 -138 506 -461 525 -497 24 -44 -7 -24 -155 99 -49 41 -118 104
-153 140 -73 73 -73 73 60 -112 158 -220 229 -334 229 -368 0 -35 -270 250
-378 398 -78 108 -221 392 -197 392 4 0 35 -24 69 -52z m4216 22 c11 -7 15
-29 15 -92 l0 -83 -29 -3 c-15 -2 -40 -1 -53 3 -25 6 -25 8 -21 80 3 41 11 81
18 90 14 17 47 20 70 5z m-1821 -82 c-111 -264 -284 -563 -509 -880 l-34 -48
-144 0 -143 0 23 29 c168 208 242 301 394 501 169 222 251 312 389 428 28 23
51 42 52 42 1 0 -12 -33 -28 -72z m-1535 -33 c30 -19 89 -64 131 -100 42 -36
81 -65 85 -65 5 0 21 5 36 10 47 18 36 4 -17 -23 l-51 -25 -97 83 c-85 74
-162 155 -147 155 3 0 30 -16 60 -35z m-244 -164 c6 -13 10 -149 10 -375 l0
-356 -41 0 -41 0 4 353 c2 263 6 358 15 369 7 8 10 18 6 21 -3 4 3 7 15 7 12
0 26 -9 32 -19z m1173 -213 c-101 -140 -250 -337 -340 -450 l-54 -68 -94 0
c-52 0 -95 4 -95 8 0 5 24 35 53 68 30 32 134 154 232 269 98 116 185 215 194
221 9 6 39 19 66 28 28 9 66 25 85 36 19 11 38 19 42 20 4 0 -36 -60 -89 -132z
m-1071 -165 c33 -27 94 -74 136 -105 41 -32 72 -58 68 -58 -14 0 -174 100
-226 141 -27 22 -50 46 -50 54 0 22 6 19 72 -32z m2204 -428 c83 -54 88 -84
70 -378 -9 -133 -20 -330 -26 -437 -6 -107 -19 -350 -30 -540 -11 -190 -24
-433 -30 -540 -17 -305 -28 -348 -108 -404 -48 -33 -123 -46 -264 -46 -89 0
-108 3 -108 15 0 19 -166 21 -1722 17 -1045 -2 -1188 -4 -1188 -17 0 -12 -20
-15 -116 -15 -189 0 -263 29 -308 122 -28 60 -29 73 -46 508 -6 146 -19 470
-30 720 -33 774 -35 891 -17 925 17 34 41 58 77 77 21 11 371 13 1922 13 1838
-1 1896 -1 1924 -20z m-4580 -1199 c28 -9 88 -33 134 -54 l84 -39 -47 -27
c-36 -22 -77 -32 -175 -47 -181 -27 -284 -64 -372 -132 l-25 -20 40 6 c203 31
402 31 553 1 69 -14 162 -51 162 -64 0 -3 -28 -19 -62 -35 -173 -82 -348 -273
-459 -500 -55 -113 -103 -254 -114 -332 -7 -52 -7 -53 -41 -53 -34 0 -34 0
-34 48 0 164 90 453 184 593 43 64 149 174 229 237 31 25 56 47 54 49 -10 9
-149 -47 -282 -114 -182 -92 -223 -108 -462 -177 -209 -60 -328 -104 -387
-143 l-39 -25 7 28 c14 58 91 170 166 244 99 97 439 314 580 370 82 33 84 33
-90 9 -178 -24 -342 -76 -498 -160 -121 -64 -168 -96 -226 -154 l-45 -46 19
56 c55 158 158 282 295 352 138 70 345 128 530 147 77 8 270 -3 321 -18z
m5729 14 c352 -40 616 -160 772 -353 50 -61 118 -175 109 -184 -2 -2 -32 12
-67 30 -35 19 -132 58 -216 86 -182 61 -329 118 -425 167 -63 32 -198 74 -236
74 -26 0 4 -25 138 -115 217 -145 283 -235 297 -403 l6 -77 -24 17 c-165 117
-321 206 -436 249 l-75 28 89 -93 c98 -102 142 -169 181 -278 25 -68 27 -85
27 -238 0 -91 -3 -177 -8 -192 -7 -25 -12 -28 -52 -28 l-45 0 0 103 c0 127
-24 231 -77 328 -45 83 -110 148 -223 224 -107 72 -378 205 -492 243 l-88 28
41 40 40 39 117 0 c142 0 403 -21 494 -40 37 -7 95 -25 129 -39 35 -14 64 -24
66 -23 1 2 -21 20 -49 42 -115 85 -304 167 -464 200 -43 9 -80 17 -81 19 -7 7
98 96 138 117 72 37 239 48 414 29z m-5180 -509 c44 -25 83 -49 87 -55 4 -6 8
-47 8 -91 l0 -80 -46 -45 c-85 -84 -146 -190 -221 -384 -19 -50 -42 -103 -49
-118 l-15 -28 -254 0 c-175 0 -255 3 -255 11 0 27 86 225 139 321 158 283 294
437 451 507 49 22 46 22 155 -38z m4430 26 c161 -67 331 -211 390 -331 19 -39
38 -93 42 -120 6 -46 5 -48 -15 -41 -26 8 -26 10 -13 -118 5 -51 12 -120 15
-154 l6 -63 -279 0 -279 0 -7 98 c-13 180 -69 327 -168 447 l-42 50 3 75 3 75
92 45 c157 77 155 77 252 37z m-3927 -774 l-3 -38 -79 4 c-61 2 -77 0 -71 -10
6 -9 -4 -11 -45 -6 -57 7 -100 36 -100 69 0 17 11 18 151 18 l150 0 -3 -37z
m3072 3 c0 -19 -3 -41 -6 -50 -9 -23 -51 -20 -59 4 -3 11 -18 23 -33 27 -21 5
-31 0 -53 -26 l-27 -32 -21 30 c-29 41 -62 41 -94 -1 l-25 -31 -16 31 c-21 41
-56 43 -85 5 -17 -25 -22 -26 -40 -15 -14 8 -69 12 -176 12 -85 0 -155 4 -155
9 0 5 -12 11 -27 14 -19 3 -33 -2 -50 -19 -25 -25 -43 -31 -43 -15 0 18 -31
41 -55 41 -15 0 -31 -10 -41 -25 -20 -30 -40 -32 -49 -6 -9 28 -41 36 -70 17
-22 -14 -117 -16 -937 -14 l-913 3 -3 38 -3 37 1490 0 1491 0 0 -34z m370 9
c0 -15 -9 -31 -24 -40 -29 -19 -150 -34 -126 -15 11 8 0 10 -48 7 -60 -4 -64
-2 -73 20 -20 53 -20 53 131 53 l140 0 0 -25z"/>
<path d="M7085 6472 c45 -28 57 -46 49 -76 -9 -39 -38 -49 -116 -44 -37 3 -68
4 -68 2 0 -2 14 -25 30 -51 17 -26 30 -60 30 -75 0 -32 -6 -33 -110 -18 -63 9
-86 6 -63 -8 6 -4 27 -37 47 -74 26 -46 42 -65 52 -61 8 3 14 10 14 15 0 10
19 8 99 -8 l35 -7 -22 28 c-23 30 -45 93 -36 107 3 5 25 18 49 29 42 20 46 20
76 5 18 -9 36 -13 40 -9 4 5 -8 35 -28 67 -35 57 -36 59 -17 73 14 11 35 13
87 8 63 -6 86 2 56 21 -6 3 -20 26 -31 50 l-19 44 -92 0 -92 0 30 -18z"/>
<path d="M7096 6417 c3 -10 9 -15 12 -12 3 3 0 11 -7 18 -10 9 -11 8 -5 -6z"/>
<path d="M6754 6061 c11 -12 48 -37 83 -57 36 -20 62 -38 60 -41 -3 -2 -31 10
-62 28 -57 32 -57 32 -50 8 10 -32 35 -60 47 -53 6 4 37 1 69 -6 33 -7 62 -10
66 -6 4 3 -6 19 -21 35 -16 17 -28 41 -28 55 0 29 -24 38 -128 51 l-54 6 18
-20z"/>
<path d="M3628 6788 c-14 -14 -14 -17 -2 -22 8 -3 14 -16 14 -30 0 -21 -7 -26
-42 -34 l-43 -10 35 -1 c53 -1 62 9 58 65 -3 46 -4 48 -20 32z"/>
<path d="M6090 6700 c8 -5 26 -9 40 -9 23 0 23 1 5 9 -11 5 -29 9 -40 9 -17 1
-17 -1 -5 -9z"/>
<path d="M4193 5888 c3 -13 15 -70 27 -128 34 -172 80 -344 97 -362 8 -9 44
-28 79 -42 35 -14 147 -64 249 -112 102 -47 190 -84 196 -82 13 4 -38 30 -283
146 -186 88 -250 125 -149 87 36 -14 67 -25 70 -25 3 0 -20 24 -51 53 -59 54
-74 87 -39 87 17 0 152 -52 284 -109 98 -42 58 -18 -104 62 -183 91 -239 128
-239 158 0 19 4 20 43 14 l42 -7 -41 43 c-38 40 -64 78 -64 94 0 13 82 -10
234 -67 87 -32 160 -57 162 -55 2 2 -76 41 -174 88 -97 46 -199 99 -227 118
-53 35 -100 61 -111 61 -3 0 -4 -10 -1 -22z"/>
<path d="M5415 5857 c-60 -29 -203 -93 -317 -142 -193 -83 -207 -91 -212 -118
-9 -44 -7 -430 2 -445 6 -9 42 3 143 49 74 33 184 83 244 111 157 71 156 70
194 246 43 200 70 352 62 352 -3 0 -55 -24 -116 -53z m-100 -244 c-104 -53
-283 -125 -297 -121 -17 6 342 166 372 167 8 0 -25 -21 -75 -46z m-2 -172
c-22 -19 -207 -103 -253 -115 -23 -6 -24 -6 -5 6 22 14 267 127 275 127 3 0
-5 -8 -17 -18z"/>
<path d="M4750 5370 c8 -5 20 -10 25 -10 6 0 3 5 -5 10 -8 5 -19 10 -25 10 -5
0 -3 -5 5 -10z"/>
<path d="M3765 3690 c-409 -5 -419 -8 -95 -30 82 -6 758 -10 1554 -10 l1409 0
34 -21 c19 -12 37 -18 41 -15 13 14 -25 61 -58 73 -27 9 -333 11 -1260 10
-674 -1 -1405 -4 -1625 -7z"/>
<path d="M4709 2716 c-128 -45 -197 -150 -186 -282 9 -112 79 -196 190 -229
64 -19 95 -19 154 1 70 23 109 52 150 111 32 46 37 62 41 127 4 67 2 82 -22
130 -60 123 -205 186 -327 142z"/>
</g>
</svg>
